<svg xmlns="http://www.w3.org/2000/svg" viewBox="0 0 69.3 58.1"><path fill="#332C22" d="m26.4 56.3l-3.3 1.7c-1 0.5-2.1 0.1-2.6-0.9l-7.3-14.6c-0.5-1-0.1-2.1 0.9-2.6l3.3-1.7c1-0.5 2.1-0.1 2.6 0.9l7.3 14.6c0.5 0.9 0.1 2.1-0.9 2.6z"/><polygon fill="#FFFFFF" points="44.1 41.8 24 41.3 19.4 24.1 36.5 13.5"/><polygon fill="#E8E8E6" points="21.7 32.7 24 41.3 44.1 41.8 40.3 27.7"/><path fill="#FF5A4C" d="m44.3 43.6c-0.7 0.2-1.5-0.2-1.7-1l-7.8-29c-0.2-0.7 0.2-1.5 1-1.7 0.7-0.2 1.5 0.2 1.7 1l7.8 29c0.2 0.7-0.2 1.5-1 1.7z"/><path fill="#D64D41" d="m38.7 28.1l3.9 14.5c0.2 0.7 1 1.2 1.7 1s1.2-1 1-1.7l-3.9-14.5-2.7 0.7z"/><path fill="#FF5D4C" d="m6.8 44.6l5.8-1.6-4-14.8-5.8 1.6c-2 0.5-3.2 2.6-2.7 4.6l2 7.5c0.6 2 2.6 3.2 4.7 2.7z"/><path fill="#D65041" d="m1.1 38.2l1 3.7c0.5 2 2.6 3.2 4.6 2.7l5.8-1.6-2-7.3-9.4 2.5z"/><path fill="#8B897C" d="M24,41.3l-11.3,3c-0.9,0.2-1.8-0.3-2-1.2l-3.8-14c-0.2-0.9,0.3-1.8,1.2-2l11.3-3L24,41.3z"/><path fill="#656255" d="m8.8 36.2l1.9 7c0.2 0.9 1.1 1.4 2 1.2l11.3-3-2.3-8.5-12.9 3.3z"/><path fill="#FF5252" d="m50.1 5.3c-0.3-1.4-1.8-2.3-3.2-2l-1.6 0.4-0.5-1.7c-0.3-1.4-1.8-2.3-3.2-2s-2.3 1.8-2 3.2l1 4.1 0.5 2 0.2 0.7 2.7-0.6 4.1-1c1.4-0.2 2.3-1.7 2-3.1z"/><path fill="#D24646" d="m46.9 3.3l-1.6 0.4-4 6.3 2.7-0.6 4.1-1c1.4-0.3 2.3-1.8 2-3.2-0.4-1.3-1.8-2.2-3.2-1.9z"/><path fill="#FF564C" d="m61.1 44.4c1-1.1 1-2.7-0.1-3.8l-1.2-1.2 1.2-1.2c1-1.1 1-2.7-0.1-3.7s-2.7-1-3.8 0.1l-2.9 3.1-1.4 1.4-0.5 0.5 2 1.9 3.1 2.9c1 1.1 2.7 1 3.7 0z"/><path fill="#D64A41" d="m61 40.6l-1.2-1.2-7.5 0.1 2 1.9 3.1 2.9c1.1 1 2.7 1 3.7-0.1 1-0.9 1-2.6-0.1-3.6z"/><path fill="#FF584C" d="m69.1 24.4c0.5-2.5-1-4.9-3.5-5.5l-2.8-0.6 0.6-2.9c0.5-2.5-1-4.9-3.5-5.5-2.5-0.5-4.9 1-5.5 3.5l-1.6 7.2-0.6 3.4-0.3 1.3 4.6 1 7.2 1.6c2.5 0.5 4.9-1.1 5.4-3.5z"/><path fill="#D64B41" d="m65.6 18.9l-2.8-0.6-10.9 6.9v0.1l4.6 1 7.2 1.6c2.5 0.5 4.9-1 5.5-3.5 0.5-2.5-1.1-5-3.6-5.5z"/></svg>