<svg width="289" height="243" viewBox="0 0 289 243" fill="none" xmlns="http://www.w3.org/2000/svg">
<path fill-rule="evenodd" clip-rule="evenodd" d="M135.945 2.9183C140.973 -0.972771 148.027 -0.972763 153.055 2.9183L283.625 103.961C294.05 112.029 288.295 128.607 275.07 128.607H255.724V215.436C255.724 230.659 243.275 243 227.918 243H61.0819C45.7251 243 33.2759 230.659 33.2759 215.436V128.607H13.9303C0.70496 128.607 -5.04985 112.029 5.37516 103.961L135.945 2.9183ZM142.476 140.388C155.111 140.388 166.724 146.685 173.544 157.231L189.975 182.64C192.701 186.858 193.959 191.728 193.613 196.727C193.266 201.725 191.346 206.379 188.063 210.186C184.777 213.993 180.437 216.595 175.51 217.71C173.775 218.102 172.023 218.298 170.282 218.298C167.079 218.298 163.906 217.638 160.91 216.332C149.297 211.27 135.993 211.224 124.35 216.196L124.041 216.332C119.413 218.348 114.363 218.825 109.437 217.709C104.51 216.593 100.17 213.991 96.8853 210.184C93.6029 206.375 91.6848 201.721 91.3391 196.724C90.9934 191.728 92.2514 186.857 94.9776 182.642L111.409 157.231C118.227 146.685 129.841 140.388 142.476 140.388ZM99.4035 157.197C104.292 155.336 108.005 151.431 109.86 146.201C111.625 141.225 111.481 135.606 109.452 130.38C107.422 125.157 103.729 120.893 99.0532 118.373C94.1417 115.727 88.7458 115.296 83.8656 117.161C74.0473 120.903 69.5417 132.93 73.823 143.978C77.243 152.771 85.2195 158.322 93.2838 158.322C95.343 158.322 97.4079 157.96 99.4035 157.197ZM153.546 112.148C153.546 126.011 143.56 137.289 131.286 137.289C119.013 137.289 109.029 126.011 109.029 112.148C109.029 98.2825 119.013 87.0022 131.286 87.0022C143.56 87.0022 153.546 98.2825 153.546 112.148ZM169.73 143.466C171.618 144.087 173.545 144.384 175.463 144.384C184.414 144.384 193.137 137.925 196.466 128C198.383 122.286 198.257 116.245 196.111 110.99C193.866 105.488 189.705 101.495 184.393 99.7449C179.08 97.9948 173.335 98.7249 168.215 101.799C163.323 104.735 159.575 109.5 157.66 115.213C153.619 127.266 159.035 139.94 169.73 143.466ZM216.603 140.528L216.607 140.531C225.059 146.737 226.167 159.519 219.077 169.028C214.559 175.073 207.8 178.36 201.303 178.36C197.576 178.36 193.934 177.278 190.852 175.014C182.4 168.811 181.291 156.028 188.382 146.52C195.48 137.016 208.139 134.33 216.603 140.528Z" fill="#027CFF"/>
</svg>
