<svg xmlns="http://www.w3.org/2000/svg" width="3095.596" height="1063.131" viewBox="0 0 3095.596 1063.131"><path fill="none" stroke="#FFF" stroke-width="1.417" stroke-miterlimit="10" d="M315.334 240.468c15.056 0 27.26-12.205 27.26-27.26 0-15.055-12.204-27.26-27.26-27.26-15.055 0-27.26 12.205-27.26 27.26h-111.91c0-15.055-12.204-27.26-27.26-27.26-15.054 0-27.26 12.205-27.26 27.26 0 15.055 12.206 27.26 27.26 27.26-15.054 0-27.26 12.205-27.26 27.26 0 15.055 12.206 27.26 27.26 27.26 15.056 0 27.26-12.205 27.26-27.26h111.91c0 15.055 12.205 27.26 27.26 27.26 15.056 0 27.26-12.205 27.26-27.26 0-15.055-12.204-27.26-27.26-27.26zM147.067 884c8.77-12.24 5.956-29.27-6.282-38.037-12.237-8.77-29.266-5.958-38.036 6.28-8.77 12.237-5.957 29.267 6.28 38.035l-65.184 90.97c-12.237-8.77-29.266-5.96-38.036 6.28-8.768 12.236-5.957 29.268 6.28 38.036 12.238 8.77 29.27 5.956 38.038-6.28-8.77 12.236-5.958 29.268 6.28 38.036 12.237 8.77 29.268 5.955 38.037-6.28 8.77-12.24 5.956-29.27-6.28-38.036l65.183-90.97c12.236 8.77 29.266 5.957 38.035-6.28 8.77-12.238 5.956-29.268-6.28-38.035-12.237-8.77-29.267-5.96-38.036 6.28zM126.234 665.74c8.58-6.276 10.447-18.322 4.17-26.903s-18.325-10.448-26.906-4.17c-8.58 6.277-10.447 18.324-4.17 26.904l-63.784 46.67c-6.28-8.58-18.324-10.447-26.906-4.17-8.58 6.278-10.448 18.325-4.17 26.905 6.28 8.58 18.326 10.448 26.906 4.17-8.58 6.278-10.448 18.325-4.17 26.907 6.28 8.58 18.325 10.444 26.906 4.167 8.582-6.28 10.447-18.325 4.17-26.905l63.785-46.67c6.278 8.582 18.324 10.45 26.904 4.17 8.58-6.278 10.447-18.324 4.17-26.904-6.28-8.58-18.325-10.447-26.906-4.17zM626.417 498.604c8.525 8.525 22.35 8.525 30.874 0 8.526-8.526 8.526-22.35 0-30.874-8.524-8.526-22.348-8.526-30.873 0l-63.374-63.375c8.525-8.525 8.525-22.348 0-30.874-8.525-8.524-22.35-8.525-30.874 0-8.527 8.526-8.527 22.35-.002 30.875-8.525-8.525-22.35-8.525-30.875 0-8.524 8.525-8.524 22.35 0 30.875 8.527 8.525 22.35 8.525 30.875 0l63.374 63.374c-8.525 8.525-8.525 22.35 0 30.874 8.526 8.525 22.35 8.525 30.874 0 8.525-8.524 8.525-22.35 0-30.874z"/><circle fill="none" stroke="#FFF" stroke-width="1.417" stroke-miterlimit="10" cx="155.199" cy="460.997" r="44.919"/><circle fill="none" stroke="#FFF" stroke-width="1.417" stroke-miterlimit="10" cx="1161.507" cy="122.847" r="44.919"/><circle fill="none" stroke="#FFF" stroke-width="1.417" stroke-miterlimit="10" cx="502.748" cy="890" r="44.919"/><path fill="none" stroke="#FFF" stroke-width="1.417" stroke-miterlimit="10" d="M360.87 756.073l-35.775-28.383-37.34-29.627c-12.33-9.784-30.256-7.72-40.04 4.61-9.784 12.33-7.718 30.257 4.61 40.04l37.34 29.628 35.774 28.385c12.33 9.783 30.255 7.718 40.04-4.61 9.784-12.33 7.718-30.258-4.61-40.042z"/><path fill="none" stroke="#FFF" stroke-width="1.417" stroke-miterlimit="10" d="M360.87 756.073l-35.775-28.383-.784-.623-35.428 44.653.784.62 35.773 28.385c12.33 9.783 30.255 7.718 40.04-4.61 9.784-12.33 7.718-30.258-4.61-40.042zM111.24 96.215c-2.753-15.497-17.547-25.83-33.046-23.076L60.48 76.285l-3.207-18.058C54.52 42.73 39.727 32.4 24.23 35.152 8.732 37.905-1.6 52.7 1.153 68.2l7.987 44.96 3.778 21.267 1.413 7.95 28.87-5.13 44.964-7.99c15.5-2.75 25.827-17.544 23.076-33.042zM443.224 532.66c-4.862-11.454-18.088-16.798-29.542-11.935l-13.09 5.558-5.667-13.346c-4.862-11.454-18.087-16.794-29.54-11.933-11.454 4.862-16.798 18.088-11.935 29.544l14.106 33.226 6.674 15.717 2.494 5.877 21.336-9.06 33.23-14.107c11.454-4.862 16.795-18.088 11.934-29.54zM723.323 101.04c-12.346-1.556-23.615 7.19-25.17 19.537l-1.777 14.11-14.385-1.812c-12.344-1.557-23.61 7.19-25.167 19.535-1.557 12.345 7.19 23.614 19.538 25.17l35.815 4.512 16.94 2.133 6.334.797 2.896-22.997 4.51-35.816c1.558-12.347-7.19-23.613-19.533-25.17zM498.847 92.847l22.838 46.275 51.066 7.42-36.95 36.02 8.723 50.86-45.676-24.013-45.675 24.01 8.723-50.86-36.952-36.02 51.067-7.418zM591.255 660.03l29.424 17.785 31.33-14.157-7.82 33.48 23.145 25.424-34.26 2.907-17.024 29.867-13.352-31.682-33.668-6.963 26.008-22.49zM1207.577 300.47c15.056 0 27.26-12.204 27.26-27.26 0-15.054-12.204-27.26-27.26-27.26-15.055 0-27.26 12.206-27.26 27.26h-111.91c0-15.054-12.204-27.26-27.26-27.26-15.054 0-27.26 12.206-27.26 27.26 0 15.056 12.206 27.26 27.26 27.26-15.054 0-27.26 12.206-27.26 27.262 0 15.054 12.206 27.26 27.26 27.26 15.056 0 27.26-12.206 27.26-27.26h111.91c0 15.054 12.205 27.26 27.26 27.26 15.056 0 27.26-12.206 27.26-27.26-.002-15.056-12.205-27.26-27.26-27.26zM885 714.21c8.58-6.277 10.446-18.323 4.168-26.904s-18.324-10.448-26.905-4.17c-8.58 6.277-10.447 18.325-4.17 26.904l-63.784 46.668c-6.28-8.58-18.325-10.446-26.907-4.168-8.58 6.278-10.448 18.324-4.17 26.904 6.28 8.58 18.326 10.448 26.906 4.17-8.58 6.278-10.45 18.325-4.17 26.907 6.277 8.58 18.324 10.446 26.905 4.17 8.582-6.28 10.447-18.326 4.17-26.906l63.785-46.67c6.278 8.582 18.324 10.45 26.904 4.17 8.58-6.277 10.448-18.323 4.17-26.903-6.28-8.58-18.324-10.447-26.905-4.17zM1488.658 488.604c8.525 8.525 22.35 8.525 30.874 0 8.525-8.526 8.525-22.35 0-30.874-8.525-8.526-22.35-8.526-30.874 0l-63.374-63.375c8.525-8.525 8.525-22.348 0-30.874-8.525-8.524-22.35-8.525-30.874 0-8.526 8.526-8.526 22.35 0 30.875-8.526-8.525-22.35-8.525-30.876 0-8.524 8.525-8.524 22.35 0 30.875 8.527 8.525 22.35 8.525 30.875 0l63.373 63.374c-8.525 8.525-8.525 22.35 0 30.874 8.526 8.525 22.35 8.525 30.874 0 8.526-8.525 8.526-22.35 0-30.874z"/><circle fill="none" stroke="#FFF" stroke-width="1.417" stroke-miterlimit="10" cx="1087.443" cy="510.999" r="44.919"/><circle fill="none" stroke="#FFF" stroke-width="1.417" stroke-miterlimit="10" cx="1333.988" cy="900" r="44.919"/><path fill="none" stroke="#FFF" stroke-width="1.417" stroke-miterlimit="10" d="M821.516 317.856l-44.34 10.92-46.285 11.395c-15.282 3.764-24.622 19.203-20.86 34.488 3.765 15.283 19.204 24.62 34.488 20.86L790.8 384.12l44.343-10.92c15.284-3.763 24.623-19.202 20.86-34.486-3.762-15.283-19.203-24.622-34.487-20.86z"/><path fill="none" stroke="#FFF" stroke-width="1.417" stroke-miterlimit="10" d="M821.516 317.856l-44.34 10.92-.974.237 13.628 55.348.97-.238 44.343-10.92c15.284-3.763 24.623-19.202 20.86-34.486-3.762-15.283-19.203-24.622-34.487-20.86zM1192.107 776.073l-35.774-28.383-37.34-29.627c-12.33-9.784-30.256-7.72-40.04 4.61-9.784 12.33-7.718 30.257 4.61 40.04l37.34 29.628 35.774 28.385c12.33 9.783 30.256 7.718 40.04-4.61 9.786-12.33 7.72-30.258-4.61-40.042zM1192.107 776.073l-35.774-28.383-.784-.623-35.43 44.653.784.62 35.774 28.385c12.33 9.783 30.256 7.718 40.04-4.61 9.785-12.33 7.72-30.258-4.61-40.042zM988.39 36.84c-12.623-9.4-30.48-6.793-39.883 5.83L937.76 57.1 923.052 46.14c-12.622-9.405-30.476-6.793-39.88 5.828-9.403 12.623-6.795 30.478 5.83 39.883l36.62 27.28 17.323 12.903 6.476 4.823 17.517-23.515 27.28-36.624c9.405-12.62 6.794-30.474-5.828-39.88zM1335.467 562.66c-4.862-11.453-18.088-16.797-29.542-11.934l-13.09 5.558-5.667-13.347c-4.862-11.454-18.087-16.793-29.54-11.933-11.454 4.862-16.798 18.09-11.934 29.544l14.105 33.227 6.673 15.717 2.494 5.876 21.336-9.06 33.23-14.107c11.454-4.862 16.795-18.087 11.934-29.54zM1565.56 241.047c-12.344-1.556-23.613 7.19-25.168 19.537l-1.778 14.11-14.385-1.812c-12.346-1.557-23.612 7.19-25.17 19.535-1.555 12.345 7.19 23.614 19.54 25.17l35.813 4.512 16.942 2.132 6.333.797 2.897-22.998 4.51-35.816c1.557-12.345-7.19-23.612-19.534-25.17zM1372.09 122.847l22.838 46.275 51.066 7.42-36.95 36.02 8.722 50.86-45.676-24.013-45.674 24.01 8.722-50.86-36.952-36.02 51.067-7.418zM933.93 454.058l-5.35 51.324 39.247 33.504-50.465 10.774-19.737 47.678-25.84-44.668-51.444-4.036 34.495-38.38-12.056-50.173 47.158 20.95zM1009.71 839.997l-5.35 51.324 39.246 33.505-50.466 10.773-19.736 47.68-25.84-44.67-51.445-4.035 34.495-38.38-12.058-50.173 47.16 20.95zM1402.49 670.03l29.425 17.785 31.332-14.157-7.82 33.48 23.144 25.424-34.258 2.907-17.025 29.867-13.353-31.682-33.668-6.963 26.007-22.49zM1850.948 240.47c15.056 0 27.26-12.206 27.26-27.262 0-15.054-12.204-27.26-27.26-27.26-15.055 0-27.26 12.206-27.26 27.26h-111.91c0-15.054-12.204-27.26-27.26-27.26-15.055 0-27.26 12.206-27.26 27.26 0 15.056 12.205 27.26 27.26 27.26-15.055 0-27.26 12.206-27.26 27.262 0 15.053 12.205 27.26 27.26 27.26 15.056 0 27.26-12.207 27.26-27.26h111.91c0 15.053 12.205 27.26 27.26 27.26 15.056 0 27.26-12.207 27.26-27.26 0-15.056-12.205-27.26-27.26-27.26zM1760.472 941.64c15.056 0 27.26-12.204 27.26-27.26 0-15.054-12.204-27.26-27.26-27.26s-27.26 12.206-27.26 27.26h-111.91c0-15.054-12.204-27.26-27.26-27.26-15.054 0-27.26 12.206-27.26 27.26 0 15.056 12.206 27.26 27.26 27.26-15.054 0-27.26 12.206-27.26 27.262 0 15.054 12.206 27.26 27.26 27.26 15.057 0 27.26-12.206 27.26-27.26h111.91c0 15.054 12.205 27.26 27.26 27.26s27.26-12.206 27.26-27.26c0-15.056-12.204-27.26-27.26-27.26zM1702.377 674.21c8.58-6.278 10.447-18.324 4.17-26.905-6.28-8.58-18.325-10.448-26.906-4.17s-10.446 18.325-4.168 26.905l-63.785 46.668c-6.28-8.58-18.324-10.447-26.906-4.168-8.58 6.276-10.447 18.324-4.17 26.904 6.28 8.58 18.327 10.447 26.907 4.17-8.58 6.277-10.448 18.324-4.17 26.906 6.28 8.58 18.325 10.445 26.906 4.167 8.582-6.277 10.447-18.323 4.17-26.903l63.785-46.67c6.278 8.582 18.324 10.448 26.904 4.17 8.58-6.278 10.448-18.324 4.17-26.904-6.28-8.58-18.324-10.448-26.905-4.17zM2202.034 448.604c8.524 8.525 22.35 8.525 30.874 0 8.525-8.526 8.525-22.35 0-30.874-8.525-8.526-22.35-8.526-30.874 0l-63.374-63.375c8.524-8.525 8.524-22.348 0-30.874-8.525-8.524-22.35-8.525-30.874 0-8.526 8.526-8.526 22.35 0 30.875-8.526-8.525-22.35-8.525-30.876 0s-8.525 22.35 0 30.875c8.526 8.525 22.35 8.525 30.875 0l63.374 63.374c-8.526 8.525-8.526 22.35 0 30.874 8.524 8.525 22.348 8.525 30.873 0 8.525-8.525 8.525-22.35 0-30.874z"/><circle fill="none" stroke="#FFF" stroke-width="1.417" stroke-miterlimit="10" cx="1690.812" cy="480.997" r="44.919"/><circle fill="none" stroke="#FFF" stroke-width="1.417" stroke-miterlimit="10" cx="2687.121" cy="102.847" r="44.919"/><circle fill="none" stroke="#FFF" stroke-width="1.417" stroke-miterlimit="10" cx="2068.361" cy="920" r="44.919"/><path fill="none" stroke="#FFF" stroke-width="1.417" stroke-miterlimit="10" d="M1956.48 796.073l-35.773-28.383-37.34-29.627c-12.33-9.784-30.256-7.72-40.04 4.61-9.784 12.33-7.718 30.257 4.61 40.04l37.34 29.628 35.774 28.385c12.332 9.783 30.257 7.718 40.04-4.61 9.787-12.33 7.72-30.258-4.61-40.042zM1956.48 796.073l-35.773-28.383-.784-.623-35.43 44.653.785.62 35.774 28.385c12.33 9.783 30.256 7.718 40.04-4.61 9.785-12.33 7.72-30.258-4.61-40.042zM1625.76 16.84c-12.623-9.4-30.48-6.793-39.883 5.83L1575.13 37.1l-14.708-10.958c-12.622-9.405-30.476-6.793-39.88 5.828-9.403 12.623-6.795 30.478 5.83 39.883l36.62 27.28 17.323 12.903 6.476 4.823 17.517-23.515 27.28-36.624c9.406-12.62 6.794-30.474-5.828-39.88zM1988.838 522.66c-4.862-11.453-18.088-16.797-29.542-11.933l-13.09 5.557-5.667-13.346c-4.863-11.454-18.088-16.794-29.542-11.933-11.453 4.862-16.797 18.088-11.934 29.544l14.106 33.226 6.674 15.717 2.494 5.876 21.336-9.06 33.23-14.108c11.454-4.864 16.795-18.09 11.934-29.542zM2258.936 91.04c-12.345-1.555-23.614 7.19-25.17 19.538l-1.777 14.11-14.386-1.812c-12.345-1.557-23.61 7.19-25.168 19.535-1.556 12.346 7.19 23.615 19.538 25.17l35.813 4.513 16.94 2.132 6.334.798 2.9-22.997 4.51-35.816c1.557-12.346-7.19-23.612-19.534-25.17zM2014.46 82.847l22.838 46.275 51.066 7.42-36.95 36.02 8.722 50.86-45.676-24.013-45.674 24.01 8.722-50.86-36.952-36.02 51.068-7.418zM2116.868 650.03l29.424 17.785 31.332-14.157-7.82 33.48 23.144 25.424-34.258 2.907-17.026 29.867-13.352-31.682-33.67-6.963 26.008-22.49zM2733.19 280.47c15.056 0 27.26-12.204 27.26-27.26 0-15.054-12.204-27.26-27.26-27.26s-27.26 12.206-27.26 27.26h-111.91c0-15.054-12.204-27.26-27.26-27.26-15.055 0-27.262 12.206-27.262 27.26 0 15.056 12.207 27.26 27.26 27.26-15.053 0-27.26 12.206-27.26 27.262 0 15.054 12.207 27.26 27.26 27.26 15.058 0 27.26-12.206 27.26-27.26h111.913c0 15.054 12.204 27.26 27.26 27.26s27.26-12.206 27.26-27.26c0-15.056-12.204-27.26-27.26-27.26zM2380.612 724.21c8.58-6.277 10.447-18.323 4.17-26.904-6.28-8.58-18.325-10.448-26.906-4.17-8.58 6.277-10.447 18.325-4.17 26.904l-63.784 46.668c-6.28-8.58-18.324-10.446-26.905-4.168-8.58 6.278-10.45 18.324-4.17 26.904 6.278 8.58 18.325 10.448 26.905 4.17-8.58 6.278-10.448 18.325-4.17 26.907 6.28 8.58 18.326 10.446 26.906 4.17 8.582-6.28 10.447-18.326 4.17-26.906l63.785-46.67c6.278 8.582 18.324 10.45 26.904 4.17 8.58-6.277 10.448-18.323 4.17-26.903-6.28-8.58-18.325-10.447-26.905-4.17zM3014.27 448.604c8.526 8.525 22.35 8.525 30.874 0 8.525-8.526 8.525-22.35 0-30.874-8.524-8.526-22.348-8.526-30.873 0l-63.373-63.375c8.524-8.525 8.524-22.348 0-30.874-8.525-8.524-22.35-8.525-30.874 0-8.526 8.526-8.526 22.35 0 30.875-8.526-8.525-22.35-8.525-30.876 0-8.524 8.525-8.524 22.35 0 30.875s22.35 8.525 30.875 0l63.374 63.374c-8.525 8.525-8.525 22.35 0 30.874 8.525 8.525 22.35 8.525 30.873 0 8.526-8.525 8.526-22.35 0-30.874z"/><circle fill="none" stroke="#FFF" stroke-width="1.417" stroke-miterlimit="10" cx="2633.056" cy="530.999" r="44.919"/><circle fill="none" stroke="#FFF" stroke-width="1.417" stroke-miterlimit="10" cx="2879.601" cy="920" r="44.919"/><path fill="none" stroke="#FFF" stroke-width="1.417" stroke-miterlimit="10" d="M2357.13 247.856l-44.34 10.92-46.285 11.395c-15.283 3.764-24.623 19.203-20.86 34.488 3.764 15.283 19.203 24.62 34.487 20.86l46.283-11.396 44.342-10.92c15.284-3.763 24.623-19.202 20.86-34.486-3.763-15.284-19.202-24.623-34.487-20.86z"/><path fill="none" stroke="#FFF" stroke-width="1.417" stroke-miterlimit="10" d="M2357.13 247.856l-44.34 10.92-.973.237 13.627 55.348.97-.238 44.343-10.92c15.284-3.763 24.623-19.202 20.86-34.486-3.763-15.284-19.202-24.623-34.487-20.86zM2697.72 776.073l-35.774-28.383-37.34-29.627c-12.33-9.784-30.256-7.72-40.04 4.61-9.784 12.33-7.718 30.257 4.61 40.04l37.34 29.628 35.774 28.385c12.332 9.783 30.256 7.718 40.04-4.61 9.787-12.33 7.72-30.258-4.61-40.042zM2697.72 776.073l-35.774-28.383-.784-.623-35.43 44.653.785.62 35.773 28.385c12.332 9.783 30.256 7.718 40.04-4.61 9.787-12.33 7.72-30.258-4.61-40.042zM2514.002 16.84c-12.622-9.4-30.478-6.793-39.882 5.83l-10.747 14.43-14.708-10.958c-12.622-9.405-30.476-6.793-39.88 5.828-9.403 12.623-6.795 30.478 5.83 39.883l36.62 27.28 17.323 12.903 6.476 4.823 17.516-23.515 27.28-36.624c9.405-12.62 6.794-30.474-5.828-39.88zM2891.08 552.66c-4.86-11.453-18.088-16.797-29.543-11.934l-13.09 5.558-5.666-13.346c-4.86-11.454-18.087-16.794-29.54-11.933-11.453 4.862-16.797 18.09-11.933 29.544l14.104 33.226 6.677 15.717 2.494 5.876 21.337-9.06 33.23-14.108c11.454-4.864 16.794-18.09 11.933-29.542zM3075.174 201.047c-12.345-1.556-23.614 7.19-25.17 19.537l-1.777 14.11-14.385-1.812c-12.345-1.557-23.61 7.19-25.168 19.535-1.556 12.345 7.19 23.614 19.538 25.17l35.813 4.512 16.94 2.132 6.334.797 2.897-22.998 4.51-35.816c1.558-12.345-7.19-23.612-19.533-25.17zM2897.703 102.847l22.838 46.275 51.067 7.42-36.95 36.02 8.72 50.86-45.674-24.013-45.675 24.01 8.723-50.86-36.952-36.02 51.068-7.418zM2449.543 444.058l-5.35 51.324 39.247 33.504-50.465 10.774-19.737 47.678-25.842-44.668-51.443-4.036 34.496-38.38-12.058-50.173 47.16 20.95zM2505.322 859.997l-5.35 51.324 39.246 33.505-50.465 10.773-19.736 47.68-25.842-44.67-51.443-4.035 34.496-38.38-12.058-50.173 47.16 20.95zM2938.105 690.03l29.424 17.785 31.33-14.157-7.82 33.48 23.145 25.424-34.26 2.907-17.023 29.867-13.354-31.682-33.668-6.963 26.007-22.49z"/></svg>