<svg xmlns="http://www.w3.org/2000/svg" width="61.265" height="55.388" viewBox="0 0 61.265 55.388"><path fill="none" stroke="#414042" stroke-width="3.056" stroke-linecap="round" stroke-linejoin="round" stroke-miterlimit="10" d="M33.022 5.37c-1.177-.322-2.393-.568-3.64-.73C15.76 2.9 3.388 11.9 1.745 24.746c-1.622 12.66 5.71 25.797 25.148 25.797"/><path fill="#FFE269" d="M51.757 8.098h-2.494c-.158-2.015-1.005-3.984-2.545-5.525-3.433-3.43-8.995-3.43-12.427 0l-.002.002-3.753 3.754c-.87-.132-1.757-.2-2.662-.2-9.762 0-17.676 7.914-17.676 17.676 0 8.708 6.3 15.94 14.59 17.402.648.178 1.322.273 2.013.273h24.956c5.25 0 9.508-5.41 9.508-12.082V20.18c0-6.673-4.257-12.082-9.507-12.082m3.848 22.49c.026.364.067.608.067.608 0 3.167-2.567 5.735-5.735 5.735s-5.734-2.567-5.734-5.734c0 0 .04-.244.066-.61 1.508-3.9 1.34-7.784 0-11.596-.027-.365-.067-.61-.067-.61 0-3.166 2.566-5.733 5.734-5.733s5.735 2.567 5.735 5.734c0 0-.04.245-.067.61-1.39 3.812-1.557 7.696 0 11.597"/><path fill-rule="evenodd" clip-rule="evenodd" fill="#414042" d="M44.587 53.464c1.468-1.914 1.284-4.612-.732-6.628-1.11-1.026-2.807-1.436-4.673-.89l.27 1.107-1.132-1.12c-1.428.465-2.94.86-4.36 1.354-.147.052-.34.162-.383.29-.105.307-.336.32-.58.347-.226.022-.456.057-.682.042-.164-.012-.334-.073-.48-.15-.298-.16-.6-.236-.937-.18-.14.025-.296.03-.434-.004-1.25-.305-2.545.205-3.264 1.294-.688 1.042-.62 2.448.168 3.482.737.97 2.084 1.398 3.27 1 1.07-.36 2.144-.387 3.21-.044 1.723.554 3.442 1.117 5.147 1.72 2.07.733 4.26.12 5.592-1.62m-14.617-3.91c.122.032.24.107.34.188.402.326.838.414 1.33.23.104-.04.223-.03.335-.038.61-.053 1.222-.11 1.834-.15.134-.01.272.048.41.063.212.022.446.104.633.043 1.412-.456 2.817-.935 4.218-1.427 0 0 .26-.875.382-1.41l.195.8c1.028-.322 2.33-.1 3.108.666.963.95 1.123 2.415.39 3.582-.706 1.124-2.128 1.59-3.4 1.155-1.818-.623-3.64-1.243-5.475-1.817-1.398-.437-2.81-.387-4.202.08-.452.153-.872.014-1.17-.372-.246-.316-.266-.802-.047-1.14.25-.383.69-.57 1.12-.454"/><path fill="none" stroke="#F1F2F2" stroke-width="1.794" stroke-miterlimit="10" d="M24.69 47.984c.403 0 .73.328.73.732v3.13c0 .405-.327.732-.73.732h-3.132c-.404 0-.73-.327-.73-.73v-3.132c0-.403.326-.73.73-.732h3.132z"/><path fill="none" d="M55.672 18.38c0-3.166-2.567-5.733-5.735-5.733s-5.734 2.567-5.734 5.734c0 0 .04.245.067.61 1.34 3.812 1.508 7.693 0 11.597-.027.365-.067.61-.067.61 0 3.166 2.566 5.734 5.734 5.734s5.735-2.567 5.735-5.734c0 0-.042-.244-.067-.61-1.557-3.902-1.39-7.784 0-11.596.025-.365.067-.61.067-.61z"/><linearGradient id="a" gradientUnits="userSpaceOnUse" x1="-7.771" y1="65.487" x2="-6.771" y2="65.487" gradientTransform="matrix(30.73 0 0 -30.73 269.349 2033.133)"><stop offset="0" stop-color="#FFBE3F"/><stop offset=".075" stop-color="#FFBE3F"/><stop offset="1" stop-color="#FF9A3F"/></linearGradient><path fill="url(#a)" d="M51.757 8.098h-2.493c-.16-2.015-1.007-3.984-2.546-5.525C45 .858 42.752 0 40.504 0c-2.25 0-4.497.857-6.213 2.572l-.002.002-3.753 3.754V41.48h21.222c5.25 0 9.508-5.41 9.508-12.082V20.18c0-6.673-4.26-12.082-9.508-12.082zm3.848 22.49c.025.364.067.608.067.608 0 3.167-2.567 5.735-5.735 5.735s-5.734-2.567-5.734-5.734c0 0 .04-.244.067-.61 1.508-3.902 1.34-7.784 0-11.596-.027-.365-.067-.61-.067-.61 0-3.166 2.566-5.733 5.734-5.733s5.735 2.567 5.735 5.734c0 0-.042.245-.067.61-1.39 3.812-1.557 7.694 0 11.597z"/></svg>